<?xml version="1.0" standalone="no"?>
<!DOCTYPE svg PUBLIC "-//W3C//DTD SVG 20010904//EN"
 "http://www.w3.org/TR/2001/REC-SVG-20010904/DTD/svg10.dtd">
<svg version="1.0" xmlns="http://www.w3.org/2000/svg"
 width="150.000000pt" height="150.000000pt" viewBox="0 0 150.000000 150.000000"
 preserveAspectRatio="xMidYMid meet">

<g transform="translate(0.000000,150.000000) scale(0.100000,-0.100000)"
fill="#000000" stroke="none">
<path d="M0 750 l0 -750 750 0 750 0 0 750 0 750 -750 0 -750 0 0 -750z m855
459 c26 -21 27 -24 23 -116 -4 -124 -3 -123 -165 -123 -160 0 -163 3 -163 129
0 85 1 91 26 110 23 18 41 21 139 21 100 0 115 -2 140 -21z m15 -388 c15 -28
12 -94 -4 -117 -13 -17 -29 -19 -133 -22 -152 -3 -167 3 -171 77 -5 80 -2 81
159 81 126 0 139 -2 149 -19z m-402 -33 c9 -9 7 -19 -8 -43 -11 -17 -26 -56
-33 -86 -11 -42 -19 -55 -36 -57 -16 -3 -21 2 -21 20 0 36 17 85 45 134 27 47
34 51 53 32z m540 -22 c24 -35 52 -115 52 -148 0 -13 -7 -18 -25 -18 -21 0
-25 5 -25 29 0 15 -13 55 -30 87 -21 43 -26 62 -18 71 15 19 20 17 46 -21z
m-134 -122 c21 -20 21 -93 0 -122 -14 -21 -22 -22 -151 -22 -160 0 -173 6
-173 77 0 82 1 83 165 83 117 0 146 -3 159 -16z m-174 -504 c0 -6 -35 -10 -85
-10 -50 0 -85 4 -85 10 0 6 35 10 85 10 50 0 85 -4 85 -10z m205 0 c4 -6 -27
-10 -85 -10 -58 0 -89 4 -85 10 3 6 42 10 85 10 43 0 82 -4 85 -10z"/>
<path d="M600 1100 c0 -13 7 -20 20 -20 13 0 20 7 20 20 0 13 -7 20 -20 20
-13 0 -20 -7 -20 -20z"/>
<path d="M785 1110 c-4 -7 -3 -16 3 -22 14 -14 45 -2 40 15 -6 16 -34 21 -43
7z"/>
<path d="M584 629 c-10 -17 13 -36 27 -22 12 12 4 33 -11 33 -5 0 -12 -5 -16
-11z"/>
<path d="M584 549 c-10 -17 13 -36 27 -22 12 12 4 33 -11 33 -5 0 -12 -5 -16
-11z"/>
</g>
</svg>
